<svg xmlns="http://www.w3.org/2000/svg" width="16" height="16" viewBox="0 0 16 16"><defs><style>.a{fill:#fdce2b;}.b{fill:#f3b117;}</style></defs><title>名称未設定-1</title><path class="a" d="M1.7574,5.7573l0,0,4-4,.0008.0007,0,0a6,6,0,1,1,8.4852,8.4853l0,0-4,4L1.7578,5.7577,6,10l4.2426,4.2426A6,6,0,1,1,1.7574,5.7573Z" transform="translate(0)"/><polygon class="b" points="1.99 9.061 3.404 10.475 6.939 14.01 8.354 12.596 4.818 9.061 6.232 7.646 9.768 11.182 11.182 9.768 7.646 6.232 9.061 4.818 12.596 8.354 14.01 6.939 10.475 3.404 9.061 1.99 1.99 9.061"/></svg>